<?xml version="1.0" encoding="utf-8"?>
<!-- Generator: Adobe Illustrator 19.0.0, SVG Export Plug-In . SVG Version: 6.00 Build 0)  -->
<svg version="1.1" id="Layer_1" xmlns="http://www.w3.org/2000/svg" xmlns:xlink="http://www.w3.org/1999/xlink" x="0px" y="0px"
	 viewBox="0 0 453.1 555" enable-background="new 0 0 453.1 555" xml:space="preserve">
<g>
	<path fill="#513628" d="M226.6,535.3c5-2.1,124.6-53.8,162.3-84.7c39.3-32.3,60.1-78.5,60.1-133.7v-260l-3.2-1.7
		C349.9,3.6,231.4,7,226.4,7.1C221.8,7,103.3,3.6,7.5,55.2l-3.2,1.7v260c0,55.2,20.8,101.5,60.1,133.7
		C102,481.5,221.6,533.2,226.6,535.3"/>
	<path fill="#FDBD10" d="M226.5,540.1c0,0-126.7-54.6-165.9-86.7C19.7,419.8,0,372.7,0,318.2V49.7C100-4.2,226.5,0.1,226.5,0.1
		S353-4.2,453.1,49.7v268.5c0,54.5-19.7,101.6-60.6,135.1C353.3,485.4,226.5,540.1,226.5,540.1 M18,318.2c0,50.3,18.7,92.3,54,121.2
		c31.7,26,127.8,69.2,154.5,81c26.8-11.8,122.8-55,154.5-81c35.4-29,54.1-70.9,54.1-121.2V53.5C301.3,41.1,143.2,48.7,18,163.5
		V318.2z"/>
	<path fill="#FDBD10" d="M354.4,281c17.6,10.3,24.7,17.1,24.9,29.7c0.3,13.9-9.3,22.3-23.9,22.3c-12.8-0.1-28-7.2-38.2-16.3v36.8
		c12.5,7.4,28.1,12.4,43.9,12.4c39.5,0,57.1-27.9,57.9-53.4c0.7-23.3-5.7-40.9-39.1-60.5c-14.9-8.7-26.7-14.5-26.3-29.1
		c0.4-14.2,12.2-19.2,23.5-19.1c14,0.1,27.5,7.9,35.8,16.4v-34.8c-7-5.4-21.9-13.7-43.8-13c-26.3,0.8-53.8,19.8-53.6,52.1
		C315.5,245.8,321.4,261.7,354.4,281"/>
	<path fill="#FDBD10" d="M218.6,362.9c4,1.2,9.8,2.3,18,2.3c44.3,0,69.8-39.9,69.8-98.3c0-58.2-26.2-94.4-73.9-94.4
		c-21.8,0-39.4,4.9-53.8,14.2V447h39.9V362.9z M218.6,207.5c3.3-1.6,8.7-2.9,14.2-2.9c23.2,0,32.8,18.5,32.8,63.3
		c0,43.7-11,64.8-34,64.8c-5.4,0-10.1-1.3-13-2.4V207.5z"/>
	<path fill="#FDBD10" d="M98,365.9c24.5,0,45-5.6,60.2-16.1V176.5h-39.9v150.6c-4.3,3-10.8,4.9-18.9,4.9c-18.3,0-21-16.8-21-28.1
		V176.5H38.4v125.6C38.4,344.4,58.4,365.9,98,365.9"/>
	<path fill="#FDBD10" d="M366.2,520.5v26h4.7v-10.9h0.7c0.4,0.5,7.1,10.9,7.1,10.9h5.7c0,0-7.1-10.4-7.8-11.5
		c3.5-0.8,5.8-3.3,5.8-6.9c0-3.7-2.3-7.7-8.7-7.7H366.2z M373.1,524.3c4,0,4.5,2,4.5,3.7c0,2.4-1,4.1-6.1,4.1h-0.6v-7.7H373.1z"/>
	<path fill="#FDBD10" d="M391.4,533.6c0,9.7-7.9,17.6-17.7,17.6c-9.7,0-17.6-7.9-17.6-17.6c0-9.7,7.9-17.7,17.6-17.7
		C383.5,516,391.4,523.9,391.4,533.6 M373.8,512.2c-11.8,0-21.4,9.7-21.4,21.5c0,11.8,9.6,21.4,21.4,21.4c11.9,0,21.4-9.6,21.4-21.4
		C395.2,521.8,385.6,512.2,373.8,512.2"/>
</g>
<g>
</g>
<g>
</g>
<g>
</g>
<g>
</g>
<g>
</g>
<g>
</g>
<g>
</g>
</svg>
